<svg t="1607915525427" viewBox="0 0 1089 1024" version="1.1" xmlns="http://www.w3.org/2000/svg" p-id="5265" width="200" height="200"><path d="M1040.670958 144.278983H47.293044a47.325042 47.325042 0 0 0 0 94.650084h109.689145V820.172739A203.987251 203.987251 0 0 0 360.617461 1024h366.697082a203.987251 203.987251 0 0 0 203.667271-203.827261V238.801075h109.689144a47.293044 47.293044 0 1 0 0-94.55409zM484.16174 724.658709a47.293044 47.293044 0 1 1-94.586088 0v-297.261421a47.293044 47.293044 0 1 1 94.586088 0v297.261421z m214.066621 0a47.293044 47.293044 0 1 1-94.586089 0v-297.261421a47.293044 47.293044 0 1 1 94.586089 0v297.261421zM362.857321 94.71408h362.217362a47.35704 47.35704 0 0 0 0-94.682082H362.857321a47.35704 47.35704 0 0 0 0 94.682082z m0 0" p-id="5266" fill="#d81e06"></path></svg>