<svg t="1607923665280" class="icon" viewBox="0 0 1024 1024" version="1.1" xmlns="http://www.w3.org/2000/svg" p-id="8850" width="32" height="32"><path d="M678.6 372.2c-58.3 0-105.6 47.2-105.6 105.5s47.3 105.5 105.6 105.5S784.2 536 784.2 477.7c-0.1-58.3-47.3-105.5-105.6-105.5z m0 166.4c-33.7 0-61-27.3-61-61s27.3-61 61-61 61 27.3 61 61-27.3 61-61 61zM378.1 372.2c-58.3 0-105.6 47.2-105.6 105.5s47.3 105.5 105.6 105.5S483.7 536 483.7 477.7c-0.1-58.3-47.4-105.5-105.6-105.5z m0 166.4c-33.7 0-61-27.3-61-61s27.3-61 61-61 61 27.3 61 61c0 33.8-27.3 61-61 61z" p-id="8851" fill="#8a8a8a"></path><path d="M924.7 498.8c-7.1-227-180.2-402.1-401.6-402.1-221.3 0-394.5 175-402 402v269.9c0 91.7 62.1 160.8 150.8 160.8 46.7 0 75.6-14.8 107.9-51.8l2-2.3c8.9-10.2 11.8-13.4 16.4-14.5 0.9 1.3 3.5 4.8 5 6.9 2.5 3.4 4.3 5.9 5.6 7.5 28.5 36.9 64 54.1 114.3 54.1 50.4 0 86.1-17.2 114.8-53.9 1.4-1.7 3.3-4.3 6.1-8.2 1.2-1.7 3.4-4.7 4.7-6.4 4.3 1.2 7.4 4.6 16 14.4l1.9 2.2c32.3 37 61.1 51.8 107.8 51.8 88.7 0 150.8-69.1 150.8-160.8V512.3l-0.5-13.5z m-44.1 269.8c0 67.1-42.4 116.2-106.3 116.2-34.4 0-51.1-10.1-74.2-36.5l-1.9-2.2c-19.9-22.8-31.8-30.3-57.9-30.3-10.4 0-17 4.7-26.3 17.1-0.7 0.9-8.6 11.8-11.2 15.2-19.2 24.6-41.3 36.8-79.7 36.8-38.3 0-60.1-12.1-79.1-36.8-2.5-3.2-10-13.6-10.5-14.3-9.7-13.1-16.5-17.9-27.6-17.9-26 0-37.8 7.4-57.7 30.2l-2 2.3c-23.1 26.4-39.8 36.5-74.3 36.5-63.9 0-106.3-49.2-106.3-116.2V500.2c6.7-202.2 159.5-359 357.5-359s350.8 156.7 357.1 359l0.4 12.1v256.3z" p-id="8852" fill="#8a8a8a"></path></svg>