<?xml version="1.0" encoding="UTF-8"?>
<svg width="16px" height="16px" viewBox="0 0 16 16" version="1.1" xmlns="http://www.w3.org/2000/svg" xmlns:xlink="http://www.w3.org/1999/xlink">
    <g id="2" stroke="none" stroke-width="1" fill="none" fill-rule="evenodd">
        <g id="hover（未收藏）" transform="translate(-264.000000, -88.000000)">
            <rect id="图标色阴影" fill-opacity="0.24" fill="#199FFC" filter="url(#filter-1)" x="18" y="64.5" width="264" height="62" rx="12"></rect>
            <rect id="白色背景" stroke-opacity="0.12" stroke="#4E6EF2" fill="transparent" x="0.5" y="0.5" width="299" height="119" rx="12"></rect>
            <g id="编组" transform="translate(264.000000, 88.000000)" fill="#D2D2D2" fill-rule="nonzero">
                <path d="M14.8398829,4.99512195 L11.4731707,4.08600976 L9.20538537,0.779239024 C8.9470687,0.334936275 8.48861833,0.044211651 7.97658537,0 C7.45029221,0.0261629198 6.97971723,0.33605376 6.74778537,0.809209756 L4.86961951,3.80628293 L2.35207805,4.57553171 L1.12327805,4.99512195 C0.644231871,5.10138162 0.246056411,5.43257429 0.0543219512,5.88425366 C-0.0770498019,6.41122231 0.0367759112,6.96933548 0.364019512,7.40277073 L2.56187317,10.1900488 L2.44199024,14.1861463 C2.34597628,14.6678097 2.44670694,15.1678655 2.72171707,15.5747902 C2.9198072,15.7946822 3.20519927,15.915425 3.5009561,15.9044683 C3.82702647,15.8896499 4.14809462,15.818677 4.45002927,15.6946732 L7.69685854,14.375961 L11.3832585,15.7446244 C11.5988445,15.8189106 11.8246374,15.8593511 12.0526049,15.8645073 C12.5121561,15.8645073 13.2814049,15.6547122 13.3413463,14.2460878 L13.1415415,10.6496 L15.5292098,7.44273171 C15.8989724,7.05795848 16.0623606,6.51952011 15.9687805,5.99414634 C15.7814906,5.49449783 15.3585997,5.12025805 14.8398829,4.99512195 Z" id="路径"></path>
            </g>
        </g>
    </g>
</svg>